PathFileType	4	(X/Y/Z)	D:\TRACE\v60_Jaco2_6-2-23\BothDRS_Motion2_4-platform.trc
DataRate	CameraRate	NumFrames	NumMarkers	Units	OrigDataRate	OrigDataStartFrame	OrigNumFrames
100.00	100.00	      62	5	mm	100.00	1	      7500
Frame#	Time	Left_Front			Right_Front			Left_Aft			Right_Aft			Post			
		X1	Y1	Z1	X2	Y2	Z2	X3	Y3	Z3	X4	Y4	Z4	X5	Y5	Z5	

1	0.000	-800.77264	8.99175	-638.72876	769.17700	10.23880	-644.40204	-708.76569	7.86562	496.01691	733.20929	7.12984	505.84698	-14.44175	1308.10913	-962.19446	
2	0.010	-800.78430	8.93494	-638.74042	769.23663	10.25097	-644.41174	-708.75244	7.85931	496.03757	733.45099	7.05545	505.73853	-14.49157	1308.07031	-962.18750	
3	0.020	-800.78027	9.02037	-638.73688	769.18738	10.25909	-644.41003	-708.77130	7.87026	496.03397	733.22430	7.13228	505.85168	-14.43513	1308.07568	-962.19690	
4	0.030	-800.74921	8.98020	-638.74518	769.23114	10.28123	-644.41107	-708.72394	7.80703	496.04144	733.24023	7.13603	505.85352	-14.50968	1308.11694	-962.18585	
5	0.040	-800.76178	8.95239	-638.73553	769.24689	10.28784	-644.38922	-708.73596	7.83543	496.04306	733.25659	7.13096	505.84525	-14.39824	1308.10376	-962.21313	
6	0.050	-800.80212	8.95397	-638.76208	769.21082	10.25498	-644.40735	-708.74872	7.85486	496.04050	733.46747	7.08111	505.73685	-14.52839	1308.11340	-962.19769	
7	0.060	-800.81415	8.97514	-638.67322	769.16248	10.24877	-644.47827	-708.75684	7.85686	496.04565	733.21155	7.14991	505.85687	-14.52597	1308.08618	-962.20300	
8	0.070	-800.78217	9.03511	-638.74133	769.23114	10.24562	-644.41516	-708.74268	7.86976	496.03430	733.46332	7.10330	505.72745	-14.48287	1308.09656	-962.19812	
9	0.080	-800.75500	9.02458	-638.78082	769.22559	10.26351	-644.41840	-708.75543	7.88986	496.02869	733.25964	7.14471	505.84293	-14.48341	1308.10547	-962.19916	
10	0.090	-800.74579	9.03343	-638.73712	769.17688	10.27086	-644.42578	-708.71326	7.84735	496.01044	733.50275	7.10555	505.73175	-14.51805	1308.12354	-962.22882	
11	0.100	-800.77081	8.98755	-638.70581	769.24817	10.29601	-644.37982	-708.71198	7.82299	496.07864	733.51282	7.09956	505.74081	-14.53592	1308.10413	-962.19958	
12	0.110	-800.81763	8.94105	-638.72107	769.30994	10.23276	-644.37360	-708.74005	7.84783	496.05167	733.44983	7.07541	505.72662	-14.51448	1308.10681	-962.21637	
13	0.120	-800.78369	8.97323	-638.74677	769.16431	10.23372	-644.41846	-708.72717	7.85505	496.01126	733.46130	7.09485	505.73648	-14.56417	1308.09961	-962.20361	
14	0.130	-800.76398	9.05776	-638.75439	769.21930	10.27404	-644.39581	-708.74536	7.86616	496.03812	733.46509	7.09713	505.72656	-14.43814	1308.10828	-962.21252	
15	0.140	-800.72192	9.09088	-638.77979	769.25861	10.27575	-644.35870	-708.73846	7.87864	496.01736	733.49670	7.10802	505.74124	-14.43867	1308.10779	-962.21680	
16	0.150	-800.71466	9.00095	-638.81396	769.27954	10.30143	-644.37579	-708.76385	7.90635	496.01114	733.50958	7.11142	505.72989	-14.41936	1308.10291	-962.23016	
17	0.160	-800.75958	8.97080	-638.76569	769.17438	10.28065	-644.40955	-708.75287	7.87657	496.01929	733.21130	7.13824	505.83768	-14.41210	1308.05676	-962.22229	
18	0.170	-800.76691	8.92643	-638.76410	769.23328	10.26533	-644.39648	-708.68622	7.80076	496.05582	733.42157	7.05407	505.72003	-14.46248	1308.08142	-962.23718	
19	0.180	-800.80127	8.94686	-638.72644	769.20447	10.26303	-644.41699	-708.73486	7.84451	496.03363	733.45605	7.09686	505.73740	-14.46413	1308.07507	-962.20215	
20	0.190	-800.77820	8.99288	-638.76324	769.22937	10.25360	-644.40094	-708.73297	7.87548	496.03885	733.47369	7.11463	505.73050	-14.41041	1308.09058	-962.18054	
21	0.200	-800.75226	9.04384	-638.74762	769.19067	10.26781	-644.42084	-708.75232	7.88190	496.02835	733.22797	7.17313	505.85037	-14.44921	1308.09595	-962.20251	
22	0.210	-800.80573	8.97786	-638.79156	769.18518	10.30472	-644.37274	-708.75146	7.86174	496.02966	733.45880	7.10412	505.74261	-14.52225	1308.10229	-962.22217	
23	0.220	-800.80292	8.94287	-638.69397	769.19141	10.25554	-644.40405	-708.74554	7.83131	496.03320	733.49255	7.12383	505.75156	-14.48122	1308.07690	-962.18646	
24	0.230	-800.81775	8.98572	-638.73370	769.18768	10.25790	-644.45941	-708.69788	7.82548	496.06842	733.45056	7.05755	505.75363	-14.48008	1308.07935	-962.19366	
25	0.240	-800.77112	8.90853	-638.80542	769.17303	10.25991	-644.42059	-708.74896	7.85731	496.06583	733.47388	7.10626	505.72601	-14.46178	1308.09937	-962.20898	
26	0.250	-800.71844	8.98972	-638.81366	769.18506	10.26384	-644.44714	-708.71075	7.87935	496.02362	733.50293	7.13391	505.72510	-14.44872	1308.11023	-962.22742	
27	0.260	-800.73798	8.97066	-638.84564	769.24561	10.27159	-644.39648	-708.78546	7.88351	496.01813	733.46997	7.11396	505.71863	-14.44525	1308.12036	-962.20105	
28	0.270	-800.75854	8.95774	-638.81842	769.21722	10.27299	-644.43073	-708.75092	7.86334	496.01328	733.44800	7.09849	505.71973	-14.45952	1308.10815	-962.21906	
29	0.280	-800.77808	8.91783	-638.80029	769.24274	10.24930	-644.36584	-708.78528	7.86925	496.00381	733.50720	7.11483	505.74155	-14.47551	1308.07446	-962.22034	
30	0.290	-800.74512	8.96920	-638.82013	769.20587	10.25248	-644.45209	-708.73480	7.86452	496.02585	733.48907	7.09895	505.73996	-14.44718	1308.09204	-962.20514	
31	0.300	-800.79132	8.99633	-638.86487	769.20905	10.25546	-644.41309	-708.73297	7.89376	496.04007	733.22424	7.14600	505.84875	-14.45692	1308.07996	-962.19440	
32	0.310	-800.74573	8.97689	-638.82196	769.28668	10.27512	-644.38251	-708.76965	7.91019	496.02896	733.48138	7.10046	505.73141	-14.39995	1308.08752	-962.19189	
33	0.320	-800.80969	8.91420	-638.80975	769.27240	10.22985	-644.36487	-708.76135	7.85685	496.00162	733.47510	7.08762	505.72079	-14.42773	1308.08936	-962.22583	
34	0.330	-800.83075	8.97690	-638.71332	769.20044	10.28836	-644.43414	-708.75494	7.82693	496.03598	733.45660	7.07887	505.74527	-14.49753	1308.05920	-962.19189	
35	0.340	-800.77448	8.94810	-638.77454	769.20941	10.25092	-644.39825	-708.75702	7.84158	496.01981	733.44421	7.07815	505.74307	-14.48721	1308.05066	-962.21893	
36	0.350	-800.79510	8.96183	-638.77655	769.24677	10.26689	-644.36047	-708.74719	7.87485	496.02499	733.44171	7.06175	505.73865	-14.40015	1308.12207	-962.18115	
37	0.360	-800.78076	9.01322	-638.79492	769.21326	10.25805	-644.42065	-708.78589	7.90007	496.03378	733.47968	7.11488	505.73111	-14.46288	1308.06909	-962.21960	
38	0.370	-800.75873	9.01364	-638.76251	769.29053	10.27796	-644.40106	-708.73376	7.87785	496.03479	733.49567	7.11163	505.72946	-14.41721	1308.08606	-962.20599	
39	0.380	-800.76880	8.93542	-638.81140	769.26294	10.28435	-644.33923	-708.78027	7.86010	496.00690	733.47205	7.07566	505.73486	-14.51084	1308.09155	-962.19165	
40	0.390	-800.78143	8.92785	-638.84644	769.27893	10.26017	-644.36548	-708.78491	7.87347	496.03159	733.22803	7.14569	505.84973	-14.45864	1308.09143	-962.20563	
41	0.400	-800.78394	8.93211	-638.80762	769.22363	10.25124	-644.39209	-708.74084	7.83474	496.02777	733.21655	7.14597	505.85522	-14.49379	1308.09387	-962.19568	
42	0.410	-800.79492	8.90966	-638.83765	769.27301	10.26419	-644.39551	-708.73718	7.84957	496.02982	733.48517	7.10712	505.75067	-14.50286	1308.11072	-962.18073	
43	0.420	-800.76080	8.99141	-638.79913	769.18103	10.26033	-644.37567	-708.77362	7.87139	496.04773	733.43359	7.06880	505.73511	-14.51009	1308.10205	-962.22546	
44	0.430	-800.80835	8.97373	-638.78516	769.23975	10.28193	-644.39801	-708.72327	7.83839	496.06613	733.45880	7.09974	505.73810	-14.49844	1308.08264	-962.22241	
45	0.440	-800.81067	8.97409	-638.80957	769.23810	10.30676	-644.35376	-708.74274	7.83049	496.03745	733.45544	7.10507	505.74945	-14.50178	1308.10217	-962.21570	
46	0.450	-800.77045	8.95110	-638.79541	769.20734	10.24148	-644.42133	-708.72363	7.84541	496.03601	733.48236	7.12062	505.74121	-14.48926	1308.09082	-962.21625	
47	0.460	-800.77661	8.98547	-638.74957	769.27344	10.28097	-644.39032	-708.72412	7.85900	496.03284	733.48004	7.08472	505.73428	-14.41254	1308.09265	-962.22321	
48	0.470	-800.80139	8.98586	-638.86420	769.28015	10.27848	-644.35950	-708.71216	7.87807	496.03583	733.49518	7.10275	505.73755	-14.46032	1308.09875	-962.22693	
49	0.480	-800.81006	8.94079	-638.86108	769.20197	10.24088	-644.40729	-708.74329	7.89147	496.01010	733.20514	7.13750	505.85226	-14.52108	1308.08643	-962.20374	
50	0.490	-800.81055	9.03679	-638.78064	769.25189	10.27873	-644.40741	-708.79260	7.89835	496.03305	733.43274	7.08838	505.72986	-14.51921	1308.09302	-962.21106	
51	0.500	-800.79291	8.99221	-638.84277	769.17450	10.27203	-644.39697	-708.75183	7.88136	496.03107	733.47992	7.11060	505.75253	-14.47370	1308.10632	-962.20599	
52	0.510	-800.77789	8.98312	-638.82092	769.28998	10.23813	-644.35388	-708.77545	7.91211	495.98572	733.46069	7.09948	505.73523	-14.41871	1308.08240	-962.20050	
53	0.520	-800.76538	8.94941	-638.77832	769.20142	10.27543	-644.39270	-708.74023	7.89606	496.03787	733.47699	7.09851	505.73874	-14.45265	1308.08679	-962.22693	
54	0.530	-800.79077	9.03880	-638.71930	769.21918	10.26949	-644.43073	-708.74133	7.86131	496.01801	733.49005	7.09364	505.72360	-14.44192	1308.07495	-962.21503	
55	0.540	-800.83917	8.95981	-638.81360	769.23254	10.30633	-644.40930	-708.71033	7.82149	496.05685	733.23511	7.13363	505.85495	-14.47965	1308.05701	-962.24927	
56	0.550	-800.78845	8.93423	-638.81250	769.26276	10.24725	-644.38354	-708.71484	7.84506	496.03571	733.43707	7.07295	505.73361	-14.48926	1308.08545	-962.21039	
57	0.560	-800.80951	8.98426	-638.76093	769.20349	10.26616	-644.39563	-708.73694	7.85690	496.04175	733.47815	7.12680	505.72989	-14.43128	1308.06555	-962.22083	
58	0.570	-800.84570	8.99940	-638.77197	769.21863	10.23699	-644.43317	-708.76373	7.87410	496.00284	733.46362	7.09367	505.73544	-14.51363	1308.08386	-962.22015	
59	0.580	-800.80737	9.06354	-638.78540	769.20270	10.27176	-644.41180	-708.72974	7.86614	496.07587	733.20184	7.13819	505.85977	-14.43695	1308.06763	-962.22418	
60	0.590	-800.77277	9.03609	-638.71387	769.22815	10.27999	-644.40942	-708.76642	7.89482	496.01953	733.48096	7.10225	505.73203	-14.48081	1308.10339	-962.20264	
61	0.600	-800.81927	9.01556	-638.81921	769.26648	10.26616	-644.37738	-708.74310	7.86742	496.04727	733.47235	7.11959	505.74054	-14.43742	1308.08887	-962.20068	
62	0.610	-800.78229	9.01446	-638.73901	769.19012	10.26959	-644.43042	-708.74438	7.88844	496.02161	733.49609	7.11576	505.73880	-14.44706	1308.09509	-962.21796	
